<?xml version="1.0" encoding="UTF-8"?>
<svg width="506px" height="400px" viewBox="0 0 506 400" version="1.1" xmlns="http://www.w3.org/2000/svg" xmlns:xlink="http://www.w3.org/1999/xlink">
    <!-- Generator: Sketch 62 (91390) - https://sketch.com -->
    <title>undraw_timeline_9u4u</title>
    <desc>Created with Sketch.</desc>
    <defs>
        <linearGradient x1="50.8286087%" y1="100.432867%" x2="48.6515337%" y2="0.0685646823%" id="linearGradient-1">
            <stop stop-color="#808080" stop-opacity="0.25" offset="0%"></stop>
            <stop stop-color="#808080" stop-opacity="0.12" offset="54%"></stop>
            <stop stop-color="#808080" stop-opacity="0.1" offset="100%"></stop>
        </linearGradient>
    </defs>
    <g id="Page-1" stroke="none" stroke-width="1" fill="none" fill-rule="evenodd" opacity="0.703613281">
        <g id="Employee_Timeline_Final-Empty-State" transform="translate(-377.000000, -375.000000)">
            <g id="undraw_timeline_9u4u" transform="translate(377.000000, 375.000000)">
                <path d="M250.895141,104.317136 C274.214834,100.225064 301.314578,100.936061 330.537084,104.317136 C324.608696,70.6956522 324.337596,37.7647059 330.537084,5.63171355 L250.895141,5.63171355 C245.012771,38.2638801 245.012771,71.684969 250.895141,104.317136 L250.895141,104.317136 Z" id="Path" fill="#F2F2F2" fill-rule="nonzero"></path>
                <rect id="Rectangle" fill="#3F3D56" fill-rule="nonzero" transform="translate(288.521739, 4.544757) rotate(-180.000000) translate(-288.521739, -4.544757) " x="274.670077" y="-4.81569885e-14" width="27.7033248" height="9.08951407"></rect>
                <path d="M188.900256,299.16624 C212.219949,295.074169 239.319693,295.785166 268.542199,299.16624 C262.613811,265.544757 262.342711,232.613811 268.542199,200.480818 L188.900256,200.480818 C183.017886,233.112985 183.017886,266.534074 188.900256,299.16624 L188.900256,299.16624 Z" id="Path" fill="#000000" fill-rule="nonzero" opacity="0.1"></path>
                <path d="M185.319693,294.56266 C208.639386,290.470588 235.73913,291.181586 264.961637,294.56266 C259.033248,260.941176 258.762148,228.01023 264.961637,195.877238 L185.319693,195.877238 C179.437323,228.509404 179.437323,261.930493 185.319693,294.56266 L185.319693,294.56266 Z" id="Path" fill="#F2F2F2" fill-rule="nonzero"></path>
                <rect id="Rectangle" fill="#3F3D56" fill-rule="nonzero" transform="translate(222.936061, 194.790281) rotate(-180.000000) translate(-222.936061, -194.790281) " x="209.084399" y="190.245524" width="27.7033248" height="9.08951407"></rect>
                <path d="M116.879795,133.473146 C116.879795,133.473146 147.769821,46.1023018 216.588235,45.3299233" id="Path" stroke="#3F3D56" stroke-width="2"></path>
                <path d="M222.762148,45.4936061 C219.831202,46.516624 216.189258,48.2608696 213.907928,50.1585678 L215.780051,45.3350384 L214.132992,40.4296675 C216.322251,42.4296675 219.882353,44.3580563 222.762148,45.4936061 Z" id="Path" fill="#3F3D56" fill-rule="nonzero"></path>
                <path d="M119.43734,166.721228 C119.43734,166.721228 116.644501,237.023018 156.808184,246.59335" id="Path" stroke="#3F3D56" stroke-width="2"></path>
                <path d="M162.915601,247.539642 C159.872123,248.132992 156.02046,249.365729 153.498721,250.925831 L156.02046,246.409207 L155.069054,241.324808 C156.961637,243.606138 160.219949,246.005115 162.915601,247.539642 Z" id="Path" fill="#3F3D56" fill-rule="nonzero"></path>
                <path d="M127.621483,143.703325 C127.621483,143.703325 344.818414,107.498721 382.092072,152.286445" id="Path" stroke="#3F3D56" stroke-width="2"></path>
                <path d="M385.421995,157.514066 C382.915601,155.68798 379.391304,153.69821 376.537084,152.910486 L381.560102,151.68798 L384.629156,147.529412 C384.255754,150.475703 384.716113,154.496164 385.421995,157.514066 Z" id="Path" fill="#3F3D56" fill-rule="nonzero"></path>
                <g id="Group" opacity="0.1" transform="translate(0.000000, 365.728900)" fill="#76618B" fill-rule="nonzero">
                    <ellipse id="Oval" cx="252.941176" cy="17.0997442" rx="252.941176" ry="16.8797954"></ellipse>
                </g>
                <path d="M475.069054,257.012788 C454.409207,268.57289 433.836317,286.225064 413.309463,307.294118 C396.675192,277.483376 376.102302,251.774936 351.002558,230.767263 L412.762148,180.485934 C437.925626,202.078002 459.026503,227.994611 475.069054,257.012788 Z" id="Path" fill="#000000" fill-rule="nonzero" opacity="0.1"></path>
                <path d="M476.092072,252.920716 C455.432225,264.480818 434.859335,282.132992 414.332481,303.202046 C397.69821,273.391304 377.12532,247.682864 352.025575,226.675192 L413.785166,176.393862 C438.948644,197.98593 460.04952,223.902539 476.092072,252.920716 Z" id="Path" fill="#F2F2F2" fill-rule="nonzero"></path>
                <polygon id="Rectangle" fill="#3F3D56" fill-rule="nonzero" transform="translate(383.937540, 199.312970) rotate(-39.150000) translate(-383.937540, -199.312970) " points="370.085878 194.768213 397.789203 194.768213 397.789203 203.857727 370.085878 203.857727"></polygon>
                <path d="M480.127877,376.327366 C479.829524,375.855722 479.454352,375.437328 479.017903,375.089514 C476.782609,372.982097 475.744246,369.877238 475.191816,366.84399 C474.639386,363.810742 474.480818,360.705882 473.595908,357.7289 C473.11373,356.205434 472.511678,354.722539 471.795396,353.294118 C471.283887,352.204604 470.639386,350.056266 469.703325,349.294118 C469.518547,349.135937 469.29689,349.026867 469.058824,348.976982 C468.617812,348.037984 467.987392,347.200326 467.207161,346.516624 C465.744246,345.191816 463.959079,344.138107 462.982097,342.424552 C462.713879,341.828444 462.382943,341.262593 461.994885,340.736573 C461.335038,340.01023 460.29156,339.713555 459.682864,338.946292 C458.890026,337.953964 459.069054,336.537084 459.171355,335.268542 C459.273657,334 459.171355,332.491049 458.076726,331.831202 C457.421995,331.42711 456.578005,331.462916 455.897698,331.109974 C454.87468,330.598465 454.470588,329.304348 454.491049,328.153453 C454.511509,327.002558 454.869565,325.882353 454.961637,324.736573 C455.248082,321.074169 452.83376,317.432225 453.764706,313.882353 C454.117647,312.537084 454.925831,311.365729 455.524297,310.117647 C455.731273,309.699831 455.902391,309.265191 456.035806,308.818414 C457.63127,309.451858 459.308807,309.85488 461.017903,310.015345 C458.199488,303.69821 458.915601,296.347826 457.601023,289.554987 L457.769821,289.319693 C459.098284,287.570764 459.852366,285.453258 459.928389,283.258312 C459.928389,280.700767 458.746803,278.363171 458.214834,275.892583 C457.759591,273.785166 457.780051,271.590793 457.191816,269.519182 C456.78371,268.234993 456.241954,266.997181 455.575448,265.826087 C454.937766,264.646206 454.26769,263.483376 453.565217,262.337596 C452.910486,260.168798 452.254049,258 451.595908,255.831202 C450.675192,252.762148 449.7289,249.693095 447.938619,247.063939 C447.283887,246.097187 447.084399,244.148338 446.076726,243.560102 C445.257979,243.138469 444.329707,242.977806 443.41688,243.099744 C441.994885,242.30179 440.746803,241.150895 440.567775,239.575448 C440.549846,239.231228 440.584341,238.886283 440.670077,238.55243 L440.84399,238.55243 C443.094629,238.342711 444.235294,236.358056 445.40665,234.624041 C447.299233,231.805627 446.578005,228 445.40665,224.797954 C445.114837,223.787957 444.58912,222.860943 443.872123,222.092072 C442.230179,220.557545 439.631714,220.900256 437.514066,220.158568 C436.828292,219.856124 436.126474,219.591449 435.411765,219.365729 C434.005115,219.033248 432.531969,219.493606 431.242967,220.143223 C429.953964,220.792839 428.751918,221.631714 427.401535,222.148338 C426.051151,222.664962 424.383632,223.063939 424.051151,224.450128 C423.957959,224.917002 423.996932,225.400621 424.163683,225.846547 C424.475723,226.733888 425.021842,227.52037 425.744246,228.122762 C424.580588,230.522657 424.526423,233.31181 425.596028,235.755074 C426.665632,238.198338 428.751682,240.050555 431.304348,240.823529 C431.693095,241.442455 432.056266,242.076726 432.388747,242.731458 C432.982097,243.877238 433.483376,245.227621 433.278772,246.455243 C432.908792,246.846653 432.566935,247.263719 432.255754,247.703325 C430.787724,249.749361 429.953964,252.153453 429.186701,254.542199 C428.155435,257.600369 427.33006,260.724148 426.716113,263.892583 C425.468031,266.542199 423.943734,269.079284 423.038363,271.867008 C421.417557,271.870805 419.803659,271.655733 418.240409,271.227621 L413.923274,270.245524 C412.419437,269.907928 410.85422,269.534527 409.677749,268.547315 C409.053708,268.035806 408.567775,267.355499 407.933504,266.84399 C407.299233,266.332481 406.025575,265.744246 405.329923,266.163683 C405.202769,266.240948 405.084422,266.331852 404.976982,266.434783 C404.342711,265.150895 402.787724,268.424552 402.051151,267.212276 C400.997442,265.468031 397.299233,267.488491 395.304348,267.161125 C394.086209,266.965775 392.839945,267.25394 391.831202,267.964194 C390.664962,268.797954 389.933504,270.521739 390.808184,271.68798 C391.025341,271.950331 391.263095,272.194927 391.519182,272.419437 C392.112424,273.098885 392.641533,273.831761 393.099744,274.608696 C394.675192,276.87468 398.30179,274.87468 401.053708,275.396419 C400.992327,275.570332 402.982097,271.258312 402.920716,271.43734 C402.557545,272.496164 401.785166,273.785166 401.97954,274.890026 L421.181586,281.462916 C422.412953,281.963699 423.720697,282.250849 425.048593,282.31202 C425.56622,282.306853 426.081377,282.239883 426.58312,282.112532 L426.58312,283.094629 L426.58312,283.130435 C426.634271,289.877238 425.560102,296.58312 425.360614,303.324808 C425.324808,304.55243 425.360614,305.882353 426.138107,306.84399 C427.007673,307.897698 428.55243,308.102302 429.897698,307.867008 C430.218576,307.815313 430.536231,307.745292 430.849105,307.657289 C431.304136,309.352631 431.632407,311.079477 431.831202,312.823529 L433.104859,321.907928 C433.26826,322.843186 433.335108,323.792762 433.304348,324.741688 C433.15601,326.879795 432.025575,328.803069 431.207161,330.782609 C430.388747,332.762148 429.902813,335.12532 430.976982,336.976982 C431.314578,337.549872 431.780051,338.040921 432.081841,338.634271 C432.465309,339.551129 432.640032,340.541805 432.59335,341.534527 C432.671782,344.296675 432.746803,347.055413 432.818414,349.810742 C432.594639,349.778339 432.366584,349.825397 432.173913,349.943734 C431.109974,350.767263 431.227621,354.716113 431.150895,355.938619 C431.069054,357.984655 431.150895,360.071611 431.038363,362.138107 C430.894788,364.9313 430.434901,367.6992 429.667519,370.388747 C429.483146,371.261309 429.080083,372.072714 428.496164,372.746803 C427.896652,373.265134 427.183429,373.634889 426.414322,373.826087 C423.865552,374.622569 421.200812,374.983978 418.531969,374.895141 C417.452685,374.86445 416.327366,374.757033 415.324808,375.171355 C414.322251,375.585678 413.514066,376.705882 413.877238,377.7289 C414.189258,378.588235 415.13555,378.997442 415.98977,379.319693 C417.93925,379.999142 419.822605,380.855212 421.616368,381.877238 C422.307049,382.346826 423.033978,382.760748 423.790281,383.11509 C424.516087,383.375829 425.266869,383.560953 426.030691,383.667519 L435.099744,385.202046 C436.956522,385.524297 439.191816,385.713555 440.373402,384.179028 C441.012788,383.350384 441.104859,382.225064 441.074169,381.176471 C441.023018,379.130435 440.613811,377.043478 440.879795,375.002558 C441.081773,373.791368 441.400391,372.602545 441.831202,371.452685 L444.542199,363.539642 C445.452685,360.84399 446.373402,358.127877 446.726343,355.304348 C446.85422,354.28133 446.84399,353.120205 446.061381,352.475703 C445.862211,352.315208 445.632497,352.196871 445.386189,352.127877 C445.355499,349.662404 445.033248,347.196931 445.171355,344.731458 C445.207161,344.112532 445.268542,343.498721 445.319693,342.88491 C445.79502,343.334292 446.218778,343.835254 446.58312,344.378517 C447.457801,345.744246 447.780051,347.554987 449.11509,348.470588 C450.250639,349.242967 451.933504,349.207161 452.731458,350.332481 C452.986857,350.763388 453.179747,351.228391 453.304348,351.713555 C453.767497,352.921099 454.462583,354.026284 455.350384,354.966752 C455.656104,356.089232 456.079598,357.176258 456.613811,358.209719 L458.86445,362.966752 C459.630097,364.675612 460.483756,366.343662 461.421995,367.964194 C462.135748,368.985652 462.711885,370.096652 463.13555,371.268542 C463.856777,373.800512 462.680307,376.57289 460.818414,378.429668 C458.956522,380.286445 456.501279,381.360614 454.081841,382.358056 C453.826055,382.442393 453.59202,382.582115 453.396419,382.767263 C453.186757,383.015619 453.075707,383.332383 453.084399,383.657289 C453.084399,384.838875 454.056266,385.846547 455.171355,386.214834 C456.311997,386.516019 457.505353,386.559699 458.664962,386.342711 C465.202046,385.549872 471.71867,383.948849 477.498721,380.777494 C478.361507,380.364912 479.126884,379.773881 479.744246,379.043478 C480.372834,378.28234 480.521071,377.232824 480.127877,376.327366 L480.127877,376.327366 Z" id="Path" fill="url(#linearGradient-1)" fill-rule="nonzero"></path>
                <path d="M452.501279,261.636829 C453.592498,263.307758 454.615516,265.023018 455.570332,266.782609 C456.236501,267.943128 456.778293,269.170733 457.186701,270.445013 C457.780051,272.491049 457.764706,274.675192 458.209719,276.767263 C458.721228,279.222506 459.918159,281.565217 459.918159,284.076726 C459.840059,286.257212 459.085694,288.359424 457.759591,290.092072 C456.436095,291.810345 454.922655,293.373546 453.248082,294.751918 C449.386057,284.745333 447.228296,274.162278 446.86445,263.442455 C446.813299,261.953964 446.803069,260.424552 447.345269,259.038363 C447.677749,258.173913 449.273657,255.790281 450.30179,256.726343 C450.675192,257.069054 450.772379,258.608696 451.002558,259.12532 C451.436348,260.000032 451.937429,260.839728 452.501279,261.636829 Z" id="Path" fill="#2F2E41" fill-rule="nonzero"></path>
                <path d="M452.501279,261.636829 C453.592498,263.307758 454.615516,265.023018 455.570332,266.782609 C456.236501,267.943128 456.778293,269.170733 457.186701,270.445013 C457.780051,272.491049 457.764706,274.675192 458.209719,276.767263 C458.721228,279.222506 459.918159,281.565217 459.918159,284.076726 C459.840059,286.257212 459.085694,288.359424 457.759591,290.092072 C456.436095,291.810345 454.922655,293.373546 453.248082,294.751918 C449.386057,284.745333 447.228296,274.162278 446.86445,263.442455 C446.813299,261.953964 446.803069,260.424552 447.345269,259.038363 C447.677749,258.173913 449.273657,255.790281 450.30179,256.726343 C450.675192,257.069054 450.772379,258.608696 451.002558,259.12532 C451.436348,260.000032 451.937429,260.839728 452.501279,261.636829 Z" id="Path" fill="#000000" fill-rule="nonzero" opacity="0.1"></path>
                <path d="M397.590793,267.222506 C395.590793,266.895141 393.370844,267.053708 391.815857,268.352941 C390.877262,269.149816 390.283377,270.278931 390.158568,271.503836 C390.025575,272.925831 390.849105,274.603581 392.2711,274.716113 C392.6133,274.719964 392.955296,274.697735 393.294118,274.649616 C394.192281,274.644034 395.089187,274.717635 395.974425,274.869565 C399.509423,275.20203 402.985945,273.798453 405.299233,271.104859 C406.521739,269.595908 404.910486,268.910486 403.468031,268.603581 C401.493606,268.184143 399.565217,267.549872 397.590793,267.222506 Z" id="Path" fill="#FBBEBE" fill-rule="nonzero"></path>
                <path d="M431.800512,313.411765 L433.069054,322.424552 C433.230747,323.353099 433.295886,324.29589 433.263427,325.237852 C433.11509,327.360614 431.984655,329.268542 431.171355,331.232737 C430.358056,333.196931 429.861893,335.544757 430.941176,337.370844 C431.273657,337.938619 431.73913,338.424552 432.040921,339.012788 C432.423793,339.924434 432.598537,340.909992 432.55243,341.897698 L432.900256,354.685422 C436.848647,354.95654 440.81166,354.936024 444.757033,354.624041 C444.911977,354.629502 445.063958,354.580651 445.186701,354.485934 C445.290444,354.355604 445.343176,354.191955 445.335038,354.025575 C445.508951,351.033248 444.987212,348.035806 445.15601,345.043478 C445.217391,343.948849 445.370844,342.85422 445.391304,341.759591 C445.452685,337.304348 443.253197,332.941176 443.918159,328.531969 C444.127526,327.420817 444.400785,326.322661 444.736573,325.242967 C446.838875,317.595908 446.393862,309.508951 445.928389,301.590793 C445.937103,301.46157 445.90097,301.333296 445.826087,301.227621 C445.74944,301.153672 445.653852,301.102337 445.549872,301.079284 C441.007504,299.720724 436.088152,300.657653 432.363171,303.590793 C431.805627,304.040921 430.398977,304.470588 430.030691,305.007673 C429.519182,305.759591 430.189258,306.501279 430.485934,307.299233 C431.142877,309.283483 431.583624,311.332874 431.800512,313.411765 L431.800512,313.411765 Z" id="Path" fill="#3F3D56" fill-rule="nonzero"></path>
                <path d="M431.800512,313.411765 L433.069054,322.424552 C433.230747,323.353099 433.295886,324.29589 433.263427,325.237852 C433.11509,327.360614 431.984655,329.268542 431.171355,331.232737 C430.358056,333.196931 429.861893,335.544757 430.941176,337.370844 C431.273657,337.938619 431.73913,338.424552 432.040921,339.012788 C432.423793,339.924434 432.598537,340.909992 432.55243,341.897698 L432.900256,354.685422 C436.848647,354.95654 440.81166,354.936024 444.757033,354.624041 C444.911977,354.629502 445.063958,354.580651 445.186701,354.485934 C445.290444,354.355604 445.343176,354.191955 445.335038,354.025575 C445.508951,351.033248 444.987212,348.035806 445.15601,345.043478 C445.217391,343.948849 445.370844,342.85422 445.391304,341.759591 C445.452685,337.304348 443.253197,332.941176 443.918159,328.531969 C444.127526,327.420817 444.400785,326.322661 444.736573,325.242967 C446.838875,317.595908 446.393862,309.508951 445.928389,301.590793 C445.937103,301.46157 445.90097,301.333296 445.826087,301.227621 C445.74944,301.153672 445.653852,301.102337 445.549872,301.079284 C441.007504,299.720724 436.088152,300.657653 432.363171,303.590793 C431.805627,304.040921 430.398977,304.470588 430.030691,305.007673 C429.519182,305.759591 430.189258,306.501279 430.485934,307.299233 C431.142877,309.283483 431.583624,311.332874 431.800512,313.411765 L431.800512,313.411765 Z" id="Path" fill="#000000" fill-rule="nonzero" opacity="0.1"></path>
                <path d="M455.498721,310.705882 C454.900256,311.948849 454.097187,313.109974 453.73913,314.445013 C452.808184,317.969309 455.217391,321.606138 454.930946,325.217391 C454.838875,326.352941 454.485934,327.468031 454.460358,328.608696 C454.434783,329.749361 454.85422,331.012788 455.867008,331.539642 C456.547315,331.892583 457.401535,331.856777 458.040921,332.255754 C459.120205,332.910486 459.242967,334.414322 459.13555,335.667519 C459.028133,336.920716 458.849105,338.332481 459.647059,339.319693 C460.255754,340.081841 461.299233,340.373402 461.953964,341.094629 C462.343583,341.614147 462.674659,342.175089 462.941176,342.767263 C463.918159,344.470588 465.703325,345.519182 467.16624,346.828645 C468.629156,348.138107 469.867008,350.138107 469.212276,351.98977 C468.731458,353.355499 467.381074,354.189258 466.081841,354.83376 C463.711163,356.003771 461.20921,356.886409 458.629156,357.462916 C458.352729,357.549359 458.059052,357.565186 457.774936,357.508951 C457.487018,357.403826 457.230194,357.227919 457.028133,356.997442 C455.519182,355.524297 453.959079,353.974425 453.263427,351.97954 C453.13877,351.497625 452.945855,351.036006 452.690537,350.608696 C451.892583,349.493606 450.209719,349.529412 449.074169,348.762148 C447.744246,347.856777 447.421995,346.056266 446.55243,344.700767 C445.682864,343.345269 444.409207,342.542199 443.483376,341.345269 C441.918159,339.360614 441.534527,336.710997 440.414322,334.445013 C439.879127,333.51524 439.390876,332.559224 438.951407,331.580563 C438.568474,330.379114 438.333156,329.135533 438.250639,327.877238 C437.529412,321.907928 435.693095,315.887468 436.849105,309.974425 C437.104859,308.670077 437.498721,307.41688 437.662404,306.076726 C437.943734,303.754476 437.498721,301.386189 437.841432,299.069054 C437.856918,298.482087 438.141811,297.934943 438.613811,297.585678 C438.889801,297.459841 439.190317,297.396942 439.493606,297.401535 C442.525997,297.242024 445.566085,297.310417 448.588235,297.606138 C450.122762,297.759591 451.841432,298.071611 452.762148,299.319693 C453.544757,300.393862 453.503836,301.836317 453.754476,303.140665 C454.066496,304.741688 454.879795,305.621483 455.734015,306.879795 C456.588235,308.138107 456.148338,309.40665 455.498721,310.705882 Z" id="Path" fill="#3F3D56" fill-rule="nonzero"></path>
                <path d="M443.734015,352.286445 C444.542199,352.286445 445.43734,352.235294 446.061381,352.751918 C446.838875,353.386189 446.849105,354.557545 446.726343,355.554987 C446.368286,358.358056 445.452685,361.053708 444.537084,363.73913 L441.815857,371.71867 C441.385902,372.860035 441.067284,374.040289 440.86445,375.242967 C440.598465,377.289003 441.007673,379.335038 441.058824,381.381074 C441.058824,382.404092 440.992327,383.539642 440.352941,384.358056 C439.196931,385.846547 436.941176,385.672634 435.084399,385.381074 L426.025575,383.846547 C425.261169,383.743035 424.510071,383.557832 423.785166,383.294118 C423.027151,382.949042 422.299887,382.540063 421.611253,382.071611 C419.818688,381.047241 417.935113,380.191071 415.984655,379.514066 C415.13555,379.191816 414.184143,378.787724 413.877238,377.933504 C413.514066,376.910486 414.322251,375.790281 415.324808,375.375959 C416.327366,374.961637 417.44757,375.069054 418.531969,375.104859 C421.198985,375.190791 423.861561,374.829441 426.409207,374.035806 C427.175701,373.847228 427.887097,373.481017 428.485934,372.966752 C429.070366,372.300883 429.473736,371.495904 429.657289,370.629156 C430.428756,367.963201 430.888771,365.216845 431.028133,362.445013 C431.13555,360.398977 431.063939,358.352941 431.14578,356.306905 C431.196931,355.089514 431.079284,351.191816 432.143223,350.358056 C432.956522,349.734015 436.30179,351.452685 437.401535,351.70844 C439.480098,352.163787 441.607363,352.357955 443.734015,352.286445 Z" id="Path" fill="#2F2E41" fill-rule="nonzero"></path>
                <path d="M473.560102,357.959079 C474.445013,360.895141 474.58312,363.98977 475.15601,367.002558 C475.7289,370.015345 476.741688,373.094629 478.976982,375.186701 C479.41316,375.530808 479.788381,375.945799 480.086957,376.414322 C480.471753,377.307319 480.323571,378.340644 479.703325,379.089514 C479.084197,379.814142 478.318986,380.399816 477.457801,380.808184 C471.682864,383.964194 465.181586,385.549872 458.629156,386.337596 C457.471831,386.558775 456.279579,386.516819 455.140665,386.214834 C454.025575,385.836317 453.038363,384.83376 453.058824,383.657289 C453.048336,383.33609 453.157735,383.022479 453.365729,382.777494 C453.563219,382.592242 453.798936,382.452558 454.056266,382.368286 C456.470588,381.381074 458.920716,380.322251 460.787724,378.470588 C462.654731,376.618926 463.826087,373.867008 463.104859,371.381074 C462.683305,370.216247 462.10695,369.113431 461.391304,368.102302 C460.456126,366.492357 459.602533,364.836385 458.83376,363.140665 L456.58312,358.419437 C455.923274,357.038363 455.258312,355.616368 455.14578,354.092072 C457.973216,354.221336 460.797083,353.768681 463.442455,352.762148 C464.678589,352.260502 465.829504,351.570298 466.85422,350.716113 C467.723785,349.98977 468.516624,348.634271 469.68798,349.585678 C470.629156,350.342711 471.222506,352.470588 471.774936,353.554987 C472.488218,354.972278 473.085235,356.445149 473.560102,357.959079 Z" id="Path" fill="#2F2E41" fill-rule="nonzero"></path>
                <path d="M440.578005,240.731458 C440.803069,242.690537 442.705882,243.98977 444.521739,244.762148 L433.028133,248.450128 C433.769821,247.028133 433.171355,245.294118 432.434783,243.846547 C431.83605,242.705437 431.152098,241.611114 430.388747,240.57289 C430.276215,240.409207 430.148338,240.209719 430.230179,240.030691 C430.303173,239.910407 430.417879,239.821191 430.55243,239.780051 C432.915601,238.726343 435.350384,237.636829 437.933504,237.253197 C438.680307,237.140665 440.092072,236.84399 440.649616,237.601023 C441.207161,238.358056 440.470588,239.826087 440.578005,240.731458 Z" id="Path" fill="#FBBEBE" fill-rule="nonzero"></path>
                <path d="M440.578005,240.731458 C440.803069,242.690537 442.705882,243.98977 444.521739,244.762148 L433.028133,248.450128 C433.769821,247.028133 433.171355,245.294118 432.434783,243.846547 C431.83605,242.705437 431.152098,241.611114 430.388747,240.57289 C430.276215,240.409207 430.148338,240.209719 430.230179,240.030691 C430.303173,239.910407 430.417879,239.821191 430.55243,239.780051 C432.915601,238.726343 435.350384,237.636829 437.933504,237.253197 C438.680307,237.140665 440.092072,236.84399 440.649616,237.601023 C441.207161,238.358056 440.470588,239.826087 440.578005,240.731458 Z" id="Path" fill="#000000" fill-rule="nonzero" opacity="0.1"></path>
                <circle id="Oval" fill="#FBBEBE" fill-rule="nonzero" cx="433.897698" cy="233.309463" r="9.01278772"></circle>
                <path d="M426.107417,307.478261 C426.982097,308.501279 428.521739,308.726343 429.867008,308.501279 C433.012788,307.98977 435.585678,305.672634 438.664962,304.83376 C442.439898,303.810742 446.434783,305.130435 450,306.736573 C453.565217,308.342711 457.109974,310.29156 461.007673,310.598465 C457.483376,302.741688 459.498721,293.283887 456.127877,285.360614 C455.304348,283.421995 454.153453,281.554987 453.969309,279.457801 C453.73913,276.85422 455.038363,274.342711 455.237852,271.754476 C455.421995,269.44757 454.726343,267.150895 454.061381,264.956522 C453.239557,262.255754 452.417732,259.553282 451.595908,256.849105 C450.675192,253.826087 449.7289,250.757033 447.943734,248.153453 C447.283887,247.196931 447.084399,245.263427 446.081841,244.680307 C443.892583,243.41688 440.57289,245.012788 438.199488,245.099744 C435.826087,245.186701 433.662404,246.87468 432.276215,248.777494 C430.808184,250.823529 429.974425,253.196931 429.207161,255.570332 C427.984866,259.104104 427.072639,262.737609 426.480818,266.429668 C426.404092,266.982097 426.337596,267.534527 426.286445,268.092072 C425.774936,273.345269 426.521739,278.629156 426.56266,283.902813 L426.56266,283.938619 C426.613811,290.634271 425.539642,297.289003 425.340153,303.97954 C425.319693,305.227621 425.319693,306.542199 426.107417,307.478261 Z" id="Path" fill="#2F2E41" fill-rule="nonzero"></path>
                <path d="M426.557545,283.907928 C428.322251,283.462916 429.918159,282.322251 431.289003,281.079284 C432.473555,280.023417 433.527896,278.829987 434.429668,277.524297 C435.563803,275.738657 436.472667,273.819563 437.13555,271.810742 C439.030377,266.484466 440.23373,260.937011 440.716113,255.304348 C440.849105,253.769821 440.890026,252.127877 439.974425,250.910486 C438.917371,249.550761 437.062465,249.099224 435.498721,249.820972 C434.29156,250.414322 433.508951,251.606138 432.782609,252.741688 C431.345269,255.007673 429.897698,257.294118 428.971867,259.810742 C428.56266,260.925831 428.26087,262.076726 427.861893,263.196931 C427.455159,264.301386 426.987257,265.382342 426.460358,266.434783 C426.383632,266.987212 426.317136,267.539642 426.265985,268.097187 C425.790281,273.350384 426.516624,278.629156 426.557545,283.907928 Z" id="Path" fill="#000000" fill-rule="nonzero" opacity="0.1"></path>
                <path d="M439.948849,249.938619 C440.86445,251.15601 440.823529,252.818414 440.695652,254.332481 C440.212641,259.966714 439.009312,265.515781 437.11509,270.84399 C436.455323,272.852443 435.546269,274.770222 434.409207,276.55243 C433.508715,277.85912 432.454246,279.052697 431.268542,280.107417 C429.529412,281.69821 427.411765,283.109974 425.053708,283.13555 C423.726825,283.070582 422.41999,282.78536 421.186701,282.29156 L402,275.769821 C401.805627,274.675192 402.578005,273.401535 402.941176,272.347826 L403.964194,269.309463 C404.255754,268.470588 404.59335,267.570332 405.355499,267.11509 C406.117647,266.659847 407.324808,267.283887 407.959079,267.785166 C408.59335,268.286445 409.074169,268.961637 409.69821,269.478261 C410.879795,270.460358 412.439898,270.823529 413.943734,271.161125 L418.255754,272.132992 C419.819728,272.556951 421.433293,272.770258 423.053708,272.767263 C424.255754,269.099744 426.542199,265.861893 427.836317,262.225064 C428.235294,261.104859 428.537084,259.953964 428.951407,258.84399 C429.872123,256.322251 431.324808,254.035806 432.762148,251.774936 C433.483376,250.634271 434.265985,249.442455 435.478261,248.85422 C437.038918,248.128106 438.894318,248.578157 439.948849,249.938619 L439.948849,249.938619 Z" id="Path" fill="#2F2E41" fill-rule="nonzero"></path>
                <path d="M436.772379,235.340153 C436.702721,234.747678 436.518574,234.174388 436.230179,233.652174 C435.918708,233.118717 435.299382,232.846213 434.695652,232.976982 C433.795396,233.258312 433.493606,234.654731 432.55243,234.700767 C431.918159,234.731458 431.462916,234.086957 431.263427,233.478261 C431.063939,232.869565 430.956522,232.189258 430.480818,231.759591 C430.149767,231.511661 429.769597,231.337271 429.365729,231.248082 C427.181586,230.557545 424.925831,229.278772 424.199488,227.104859 C424.028304,226.663604 423.98747,226.182463 424.081841,225.71867 C424.414322,224.342711 426.127877,223.933504 427.432225,223.432225 C428.736573,222.930946 429.98977,222.086957 431.268542,221.44757 C432.547315,220.808184 434.030691,220.342711 435.43734,220.670077 C436.151189,220.896319 436.852889,221.159243 437.539642,221.457801 C439.657289,222.189258 442.250639,221.846547 443.892583,223.375959 C444.60915,224.137234 445.135038,225.057538 445.42711,226.061381 C446.57289,229.237852 447.299233,233.012788 445.401535,235.810742 C444.230179,237.534527 443.094629,239.503836 440.84399,239.70844 C438.225064,239.938619 437.186701,237.549872 436.772379,235.340153 Z" id="Path" fill="#2F2E41" fill-rule="nonzero"></path>
                <g id="Group" opacity="0.1" transform="translate(424.040921, 223.529412)" fill="#000000" fill-rule="nonzero">
                    <path d="M8.7314578,8.86445013 C8.53196931,8.26086957 8.42455243,7.57544757 7.95396419,7.14578005 C7.6229131,6.89785051 7.24274245,6.7234603 6.83887468,6.6342711 C4.64961637,5.94373402 2.39897698,4.66496164 1.66751918,2.49104859 C1.50054474,2.04872906 1.46154472,1.56831973 1.55498721,1.10485934 C1.6071459,0.887013443 1.69905085,0.680660808 1.82608696,0.496163683 C0.992327366,0.859335038 0.265984655,1.34015345 0.0613810742,2.18925831 C-0.0329908126,2.65305164 0.00784399576,3.13419221 0.179028133,3.57544757 C0.905370844,5.74936061 3.16112532,7.02813299 5.34526854,7.71867008 C5.74913631,7.80785927 6.12930696,7.98224948 6.46035806,8.23017903 C6.93606138,8.65984655 7.03836317,9.34526854 7.24296675,9.9488491 C7.44757033,10.5524297 7.89769821,11.202046 8.53196931,11.1713555 C9.16624041,11.140665 9.47314578,10.5626598 9.87723785,10.0716113 C9.31969309,10.0051151 8.91560102,9.42199488 8.7314578,8.86445013 Z" id="Path"></path>
                    <path d="M18.3069054,15.084399 C15.6777494,15.3248082 14.6393862,12.9360614 14.2148338,10.7263427 C14.1586701,10.1368092 13.9847309,9.56454905 13.7033248,9.04347826 C13.3922239,8.50931849 12.7735205,8.23502667 12.168798,8.36317136 C11.6828645,8.51662404 11.370844,8.99744246 11.0383632,9.38618926 C11.5132571,9.43064982 11.9404759,9.69340824 12.1943734,10.0971867 C12.4827681,10.6194013 12.6669156,11.1926906 12.7365729,11.7851662 C13.1508951,13.9948849 14.1892583,16.3887468 16.8286445,16.1432225 C17.871861,16.0319023 18.8354818,15.5336665 19.5294118,14.7468031 C19.1436279,14.9268321 18.7304042,15.040944 18.3069054,15.084399 L18.3069054,15.084399 Z" id="Path"></path>
                </g>
                <path d="M129.867008,195.795396 C106.55243,191.703325 79.4475703,192.419437 50.2250639,195.795396 C56.1534527,162.179028 56.4296675,129.248082 50.2250639,97.1099744 L129.867008,97.1099744 C135.749378,129.742141 135.749378,163.16323 129.867008,195.795396 L129.867008,195.795396 Z" id="Path" fill="#F2F2F2" fill-rule="nonzero"></path>
                <rect id="Rectangle" fill="#3F3D56" fill-rule="nonzero" x="78.4040921" y="91.483376" width="27.7033248" height="9.08951407"></rect>
                <rect id="Rectangle" fill="#76618B" fill-rule="nonzero" x="198.465473" y="221.703325" width="49.1048593" height="6.64961637"></rect>
                <rect id="Rectangle" fill="#76618B" fill-rule="nonzero" x="198.465473" y="235.514066" width="49.1048593" height="6.64961637"></rect>
                <rect id="Rectangle" fill="#76618B" fill-rule="nonzero" x="263.938619" y="22.2148338" width="49.1048593" height="6.64961637"></rect>
                <rect id="Rectangle" fill="#76618B" fill-rule="nonzero" x="263.938619" y="36.0255754" width="49.1048593" height="6.64961637"></rect>
                <rect id="Rectangle" fill="#76618B" fill-rule="nonzero" x="67.5191816" y="115.309463" width="49.1048593" height="6.64961637"></rect>
                <path d="M65.2480818,368.956522 L75.0383632,363.202046 C73.7143423,360.940522 72.021824,358.916069 70.0306905,357.212276 L51.5601023,362.956522 L66.0358056,354.445013 C58.7454299,350.451366 49.8888177,350.60081 42.7373294,354.838145 C35.5858412,359.075481 31.2008535,366.77183 31.2020458,375.084399 C31.2020458,388.081841 41.7340153,388.531969 54.7314578,388.531969 C67.7289003,388.531969 78.2608922,388.081841 78.2608922,375.084399 C78.2654405,371.796198 77.5769944,368.543944 76.2404092,365.539642 L65.2480818,368.956522 Z" id="Path" fill="#76618B" fill-rule="nonzero"></path>
                <path d="M67.7391304,381.590793 C66.6971732,380.545619 65.5327205,379.630202 64.2710997,378.86445 C62.4910486,377.682864 60.6547315,376.480818 58.5575448,376.076726 C56.7161125,375.7289 54.8184143,376.025575 52.9309463,375.918159 C49.6755429,375.716983 46.6110494,374.313259 44.3324808,371.97954 C42.9974425,370.59335 41.943734,368.910486 40.3375959,367.841432 C38.6035806,366.700767 36.4040921,366.455243 34.3478261,366.741688 C33.7510699,366.82676 33.1600389,366.948041 32.5780051,367.104859 C31.6544459,369.663748 31.1836422,372.363946 31.186686,375.084399 C31.186686,388.081841 41.7186701,388.531969 54.7161125,388.531969 C61.0230179,388.531969 66.7468031,388.424552 70.971867,386.828645 L70.2813299,385.534527 C69.6061053,384.116622 68.7517288,382.791221 67.7391304,381.590793 Z" id="Path" fill="#000000" fill-rule="nonzero" opacity="0.1"></path>
                <path d="M305.749361,350.189258 L292.762148,342.567775 C294.522283,339.569045 296.769567,336.884405 299.411765,334.624041 L323.907928,342.240409 L304.710997,330.956522 C314.378986,325.659607 326.124526,325.857433 335.608655,331.476918 C345.092784,337.096403 350.907729,347.303423 350.905372,358.327366 C350.905372,375.560102 336.936061,376.153453 319.703325,376.153453 C302.470588,376.153453 288.501126,375.560102 288.501126,358.327366 C288.487568,353.956877 289.395644,349.63262 291.16624,345.636829 L305.749361,350.189258 Z" id="Path" fill="#76618B" fill-rule="nonzero"></path>
                <path d="M302.439898,366.941176 C303.826731,365.558721 305.371957,364.344861 307.043478,363.324808 C309.401535,361.764706 311.841432,360.163683 314.618926,359.631714 C317.058824,359.16624 319.575448,359.560102 322.056266,359.41688 C326.375813,359.155815 330.44287,357.293723 333.462916,354.194373 C335.232737,352.358056 336.629156,350.102302 338.762148,348.705882 C341.058824,347.171355 343.974425,346.87468 346.700767,347.248082 C347.493322,347.364989 348.278827,347.525506 349.053708,347.7289 C350.276412,351.124948 350.899497,354.707686 350.895163,358.317136 C350.895163,375.549872 336.925831,376.143223 319.693095,376.143223 C311.329923,376.143223 303.73913,376.005115 298.132992,373.892583 L299.069054,372.143223 C299.968626,370.273898 301.101246,368.525984 302.439898,366.941176 Z" id="Path" fill="#000000" fill-rule="nonzero" opacity="0.1"></path>
            </g>
        </g>
    </g>
</svg>