<svg width="26" height="26" viewBox="0 0 26 26" fill="none" xmlns="http://www.w3.org/2000/svg">
<circle cx="12.65" cy="12.7139" r="12.5" fill="#EFEFEF"/>
<path d="M17.217 15.4604C17.5725 15.6316 17.8491 15.8555 18.0466 16.132C18.2442 16.4086 18.3824 16.6983 18.4615 17.0012C18.5405 17.3041 18.5931 17.5872 18.6195 17.8506C18.6458 18.1139 18.6458 18.3181 18.6195 18.4629C18.5931 18.6078 18.5405 18.7131 18.4615 18.779C18.2771 18.937 18.0532 19.0753 17.7898 19.1938C17.5265 19.3123 17.2367 19.4177 16.9207 19.5098C16.6046 19.602 16.282 19.6745 15.9528 19.7271L14.9849 19.8852C14.2474 19.9773 13.4704 20.03 12.6539 20.0432C11.8243 20.03 11.0408 19.9773 10.3033 19.8852C9.98724 19.8457 9.6646 19.793 9.33538 19.7271C9.00615 19.6613 8.6901 19.5889 8.38721 19.5098C8.08433 19.4308 7.79461 19.3255 7.51806 19.1938C7.24152 19.0621 7.01106 18.9238 6.8267 18.779C6.74768 18.7131 6.6983 18.6111 6.67854 18.4728C6.65879 18.3345 6.6555 18.1271 6.66867 17.8506C6.68184 17.574 6.73451 17.2909 6.8267 17.0012C6.91888 16.7115 7.05715 16.4217 7.24152 16.132C7.42588 15.8423 7.70243 15.6184 8.07116 15.4604L9.29587 14.9073C9.67777 14.7361 10.0202 14.5517 10.323 14.3542C10.6259 14.1567 10.8564 13.9262 11.0144 13.6628C11.1724 13.3995 11.258 13.0834 11.2712 12.7147V12.5962C11.0473 12.4118 10.8827 12.1945 10.7774 11.9443L10.323 10.8776C10.086 10.6142 9.90823 10.3706 9.78971 10.1467C9.68435 9.96237 9.63168 9.79118 9.63168 9.63315C9.63168 9.47512 9.74361 9.39611 9.96749 9.39611C9.88847 8.89569 9.86872 8.44794 9.90823 8.05288C9.93456 7.72365 10.0136 7.42077 10.1453 7.14422C10.277 6.86767 10.514 6.7294 10.8564 6.7294C10.9222 6.47919 11.0342 6.25532 11.1922 6.05778C11.3371 5.88659 11.5412 5.72856 11.8046 5.5837C12.0679 5.43884 12.4169 5.373 12.8515 5.38617C13.2466 5.38617 13.5692 5.47177 13.8194 5.64296C14.0696 5.81416 14.2869 6.01169 14.4713 6.23556C14.6556 6.45944 14.8071 6.67672 14.9256 6.88743C15.0441 7.09813 15.1758 7.24957 15.3207 7.34175C15.3733 7.36809 15.4194 7.40101 15.4589 7.44052C15.4984 7.48003 15.4984 7.5327 15.4589 7.59855C15.4063 7.78291 15.3536 8.05288 15.3009 8.40844C15.2482 8.764 15.2548 9.09322 15.3207 9.39611C15.5577 9.40928 15.6696 9.48829 15.6565 9.63315C15.6433 9.77801 15.5775 9.9492 15.4589 10.1467C15.3272 10.3706 15.1429 10.6142 14.9058 10.8776C14.8137 11.1147 14.7412 11.3188 14.6885 11.49C14.6359 11.6612 14.5766 11.8192 14.5108 11.9641C14.4449 12.1089 14.3791 12.2208 14.3132 12.2999C14.2474 12.3789 14.1486 12.4776 14.0169 12.5962V12.7147C14.0169 13.0966 14.1025 13.4126 14.2737 13.6628C14.4449 13.9131 14.682 14.1435 14.9849 14.3542C15.2877 14.5649 15.6235 14.7493 15.9923 14.9073C16.361 15.0653 16.7692 15.2497 17.217 15.4604Z" fill="black" fill-opacity="0.1"/>
</svg>
